<?xml version="1.0" encoding="utf-8"?>
<!-- Generator: Adobe Illustrator 28.0.0, SVG Export Plug-In . SVG Version: 6.00 Build 0)  -->
<svg version="1.1" id="Layer_1" xmlns="http://www.w3.org/2000/svg" xmlns:xlink="http://www.w3.org/1999/xlink" x="0px" y="0px"
	 viewBox="0 0 50.9 51.4" style="enable-background:new 0 0 50.9 51.4;" xml:space="preserve">
<style type="text/css">
	.st0{fill:#400303;}
	.st1{fill:#FFFFFF;}
</style>
<circle class="st0" cx="25.4" cy="25.6" r="25"/>
<path class="st1" d="M43.1,26.9c0,0.1,0,0.1,0,0.2c-0.1,2.5-0.7,4.9-1.8,7.1c-1.7,3.2-4,5.7-7.1,7.5c-1,0.6-2,1.1-3.1,1.4
	c-0.1,0.1-0.3,0.1-0.6,0.1c-0.4-0.1-0.7-0.4-0.7-0.8c0-0.1,0-0.1,0-0.1c0-1.6,0-3.1,0-4.7c0-0.6-0.1-1.1-0.2-1.7
	c-0.1-0.7-0.5-1.3-0.9-1.7c0,0,0,0,0-0.1c0.1,0,0.1,0,0.1,0c1.1-0.1,2.2-0.3,3.2-0.7c1-0.4,1.9-0.9,2.6-1.7c0.7-0.7,1.2-1.7,1.5-2.6
	c0.3-0.7,0.4-1.5,0.5-2.2c0.1-0.5,0.1-1.1,0.1-1.7c0-1.7-0.6-3.2-1.7-4.5c-0.1-0.1-0.1-0.1-0.1-0.2c0.3-0.8,0.3-1.6,0.3-2.4
	c-0.1-0.7-0.2-1.3-0.5-2c0-0.1-0.1-0.1-0.1-0.1c-0.4-0.1-0.8,0-1.1,0.1c-0.8,0.1-1.5,0.5-2.2,0.9c-0.5,0.2-0.9,0.5-1.3,0.7
	c-0.1,0.1-0.2,0.1-0.3,0.1c-0.8-0.2-1.6-0.4-2.4-0.5c-1-0.1-2-0.1-2.9-0.1c-1.1,0.1-2.1,0.3-3.2,0.5c-0.1,0-0.1,0-0.2-0.1
	c-0.7-0.5-1.3-0.9-2.1-1.2c-0.5-0.2-1.1-0.4-1.7-0.5c-0.3-0.1-0.5-0.1-0.9-0.1c-0.1,0-0.1,0.1-0.2,0.1c-0.4,1-0.5,2-0.5,3
	c0.1,0.5,0.1,0.9,0.3,1.4c0,0.1,0,0.1-0.1,0.2c-0.8,0.9-1.3,2.1-1.6,3.3c-0.1,0.4-0.1,0.8-0.1,1.2c0,0.9,0.1,1.8,0.2,2.7
	c0.2,1.1,0.6,2.1,1.3,3c0.7,0.9,1.5,1.6,2.5,2.1c0.8,0.4,1.6,0.7,2.4,0.8c0.5,0.1,1.1,0.2,1.6,0.3h0.1V34c-0.5,0.4-0.8,1-1,1.7
	c0,0.2-0.1,0.3-0.1,0.5c0,0.1-0.1,0.1-0.1,0.1c-0.6,0.3-1.3,0.5-1.9,0.5c-1.1,0-2-0.5-2.6-1.3c-0.2-0.2-0.3-0.5-0.5-0.7
	c-0.3-0.5-0.7-0.9-1.1-1.2c-0.4-0.3-0.8-0.5-1.3-0.6c-0.3-0.1-0.5-0.1-0.8,0c-0.1,0-0.1,0.1-0.2,0.1c-0.1,0.1-0.2,0.2-0.1,0.3
	c0.1,0.4,0.2,0.5,0.2,0.6c0.1,0.2,0.3,0.3,0.5,0.4c0.2,0.1,0.4,0.3,0.6,0.5c0.5,0.6,1,1.3,1.3,2.1c0.4,1,1.1,1.6,2,2
	c0.5,0.1,0.9,0.3,1.3,0.3c0.8,0.1,1.7,0,2.4-0.1h0.1c0,0.1,0,0.1,0,0.1c0,0.9,0,2,0,3c0,0.1,0,0.2-0.1,0.3c0,0.3-0.3,0.5-0.7,0.6
	c-0.2,0-0.4,0-0.6-0.1c-4.4-1.5-8-4.8-10.1-8.9c-0.7-1.5-1.2-3-1.5-4.6c-0.1-0.9-0.2-1.7-0.3-2.5c0-0.9,0-1.7,0.1-2.6
	c0.4-3.6,1.8-6.8,4.2-9.6c2.1-2.3,4.5-4,7.4-5.1c1-0.3,2.1-0.6,3.1-0.8c0.7-0.1,1.3-0.1,2.1-0.2c0.1,0,0.1,0,0.1,0
	c0.4,0,0.7,0,1.1,0c0.1,0,0.1,0,0.1,0c0.8,0,1.3,0,1.8,0.1c1,0.1,2,0.3,3,0.6c4.2,1.3,7.5,3.8,9.8,7.5c1.7,2.6,2.6,5.6,2.6,8.7
	c0,0.1,0,0.1,0,0.2C43.1,26.2,43.1,26.5,43.1,26.9z"/>
<g>
	<path class="st1" d="M8.1,11.1c-0.1,0-0.3,0-0.4,0.1c-0.2,0-0.3,0.1-0.4,0.2c-0.1,0.1-0.2,0.2-0.3,0.3c-0.2,0.2-0.3,0.5-0.3,0.7
		s0,0.4,0.1,0.6c0.1,0.2,0.2,0.4,0.4,0.6c0.2,0.2,0.3,0.3,0.6,0.5c0.2,0.1,0.4,0.2,0.6,0.3c0.2,0.1,0.4,0.1,0.6,0.1s0.4,0,0.6-0.1
		s0.4-0.3,0.5-0.5c0.2-0.3,0.3-0.6,0.2-0.9c-0.1-0.3-0.3-0.6-0.5-0.9l0.7-1c0.3,0.2,0.5,0.5,0.7,0.8c0.2,0.2,0.3,0.5,0.3,0.8
		s0,0.6-0.1,0.9c-0.1,0.3-0.2,0.6-0.4,0.9c-0.2,0.4-0.5,0.6-0.9,0.8c-0.3,0.2-0.7,0.3-1,0.4s-0.7,0-1.1-0.1
		c-0.4-0.1-0.7-0.3-1.1-0.5S6.3,14.6,6,14.3c-0.2-0.3-0.4-0.6-0.5-1c-0.1-0.4-0.1-0.7,0-1.1c0.1-0.4,0.2-0.7,0.5-1.1
		c0.3-0.3,0.5-0.5,0.7-0.7c0.2-0.2,0.5-0.3,0.8-0.4C7.8,9.9,8,9.9,8.3,9.9s0.6,0.1,0.9,0.3l-0.7,1C8.4,11.2,8.2,11.1,8.1,11.1z"/>
	<path class="st1" d="M9.7,7.2l3.9,4.1l-0.8,0.8L8.9,8L9.7,7.2z"/>
	<path class="st1" d="M11.4,7l-0.6-0.7l0.9-0.7l0.6,0.7L11.4,7z M12.7,6.8l2.5,3.3l-0.9,0.7l-2.5-3.3L12.7,6.8z"/>
	<path class="st1" d="M15.9,5.8c-0.2,0.1-0.3,0.2-0.3,0.3c-0.1,0.1-0.1,0.3-0.1,0.4s0,0.3,0.1,0.5c0,0.2,0.1,0.3,0.2,0.4
		c0.1,0.1,0.2,0.3,0.3,0.4s0.2,0.2,0.3,0.3c0.1,0.1,0.3,0.1,0.4,0.1c0.1,0,0.3,0,0.5-0.1c0.2-0.1,0.4-0.3,0.5-0.5s0-0.4,0-0.7l1-0.5
		c0.2,0.5,0.2,1,0,1.4c-0.2,0.4-0.5,0.8-1,1C17.5,8.9,17.2,9,17,9.1c-0.3,0-0.5,0-0.8-0.1c-0.2-0.1-0.5-0.2-0.7-0.4
		c-0.2-0.2-0.4-0.4-0.5-0.7c-0.5-0.2-0.6-0.5-0.7-0.8c0-0.3,0-0.6,0-0.8s0.2-0.5,0.4-0.7s0.4-0.4,0.7-0.6c0.2-0.1,0.4-0.2,0.7-0.2
		c0.2,0,0.5-0.1,0.7,0c0.2,0,0.4,0.1,0.6,0.2c0.2,0.1,0.4,0.3,0.5,0.5l-1,0.5C16.7,5.6,16.3,5.5,15.9,5.8z"/>
	<path class="st1" d="M19.4,2l0.7,3l1.1-1.8l1.3-0.3l-1.2,1.8l2.2,2.1l-1.3,0.3l-1.5-1.5l-0.3,0.5l0.3,1.4l-1.1,0.3l-1.3-5.6L19.4,2
		z"/>
	<path class="st1" d="M27.5,2.8l-0.1,0.5l0,0C27.6,3.1,27.8,3,28,2.9c0.2-0.1,0.5-0.1,0.7,0C29,3,29.2,3,29.4,3.2
		c0.2,0.1,0.3,0.3,0.4,0.6c0.2-0.1,0.4-0.3,0.7-0.3c0.2-0.1,0.5-0.1,0.8-0.1c0.2,0,0.4,0.1,0.6,0.2s0.3,0.2,0.4,0.3
		c0.1,0.1,0.2,0.3,0.2,0.5c0,0.2,0,0.4,0,0.7L32,7.8l-1.1-0.2l0.5-2.3c0-0.1,0-0.3,0.1-0.4c0-0.1,0-0.2,0-0.3s-0.1-0.2-0.2-0.3
		s-0.2-0.1-0.4-0.2c-0.2,0-0.3,0-0.4,0s-0.2,0.1-0.3,0.2c-0.1,0.1-0.1,0.2-0.2,0.3S29.9,4.8,29.9,5l-0.4,2.3l-1.1-0.2l0.5-2.3
		c0-0.1,0-0.2,0.1-0.4c0-0.1,0-0.2,0-0.3s-0.1-0.2-0.1-0.3c-0.1-0.1-0.2-0.1-0.4-0.2c-0.1,0-0.1,0-0.2,0s-0.2,0-0.3,0.1
		c-0.1,0-0.2,0.1-0.3,0.2c-0.1,0.1-0.1,0.3-0.2,0.5L27,6.8l-1.1-0.2l0.6-4L27.5,2.8z"/>
	<path class="st1" d="M33.8,8c0.1,0.2,0.2,0.4,0.5,0.6c0.2,0.1,0.4,0.2,0.6,0.1c0.2,0,0.3-0.1,0.4-0.2L36.2,9
		c-0.3,0.3-0.7,0.5-1.1,0.6c-0.4,0-0.8-0.1-1.2-0.3c-0.3-0.2-0.5-0.3-0.7-0.6C33,8.5,32.9,8.2,32.8,8c-0.1-0.3-0.1-0.5,0-0.8
		c0-0.3,0.1-0.6,0.3-0.8c0.2-0.3,0.3-0.5,0.6-0.7c0.2-0.2,0.5-0.3,0.7-0.4c0.3-0.1,0.5-0.1,0.8-0.1s0.6,0.1,0.8,0.3
		c0.3,0.2,0.5,0.4,0.7,0.6C36.9,6.3,37,6.6,37,6.9s0,0.6-0.1,0.9c-0.1,0.3-0.2,0.6-0.4,0.8l-2.6-1.5C33.8,7.4,33.8,7.7,33.8,8z
		 M36,6.7c0-0.2-0.2-0.4-0.4-0.5c-0.2-0.1-0.3-0.1-0.4-0.1c-0.1,0-0.3,0-0.4,0.1c-0.1,0-0.2,0.1-0.3,0.2c-0.1,0.1-0.1,0.1-0.2,0.2
		l1.6,0.9C36,7.1,36.1,6.9,36,6.7z"/>
	<path class="st1" d="M42.1,10.7l-0.6,0.5l-0.6-0.6L39.5,12c-0.1,0.1-0.2,0.2-0.2,0.3s0.1,0.2,0.2,0.3l0.1,0.1l0.1,0.1l-0.6,0.7
		c-0.1-0.1-0.2-0.1-0.2-0.2c-0.1-0.1-0.2-0.2-0.2-0.2c-0.1-0.1-0.2-0.3-0.3-0.4c-0.1-0.1-0.1-0.3-0.2-0.4c0-0.1,0-0.3,0-0.4
		c0-0.1,0.1-0.3,0.3-0.4l1.8-1.7l-0.5-0.5l0.6-0.5l0.5,0.5l0.9-0.8l0.7,0.7L41.6,10L42.1,10.7z"/>
	<path class="st1" d="M41.9,12.1c0.3-0.1,0.6,0,0.8,0s0.5,0.2,0.7,0.3c0.2,0.2,0.4,0.4,0.6,0.7c0.2,0.3,0.3,0.6,0.3,0.8s0,0.5,0,0.8
		c-0.1,0.3-0.2,0.5-0.4,0.7s-0.4,0.4-0.7,0.6c-0.3,0.2-0.6,0.3-0.8,0.3s-0.5,0-0.8,0c-0.3-0.1-0.5-0.2-0.7-0.4
		c-0.2-0.2-0.4-0.4-0.6-0.7c-0.2-0.3-0.3-0.6-0.3-0.8c0-0.3,0-0.5,0-0.8s0.2-0.5,0.4-0.7s0.4-0.4,0.7-0.6S41.6,12.2,41.9,12.1z
		 M41.2,13.7c-0.1,0.1-0.2,0.2-0.3,0.4c-0.1,0.1-0.1,0.3-0.1,0.4c0,0.1,0.1,0.3,0.2,0.5s0.2,0.3,0.3,0.4s0.3,0.1,0.4,0.1
		s0.3,0,0.4-0.1c0.2-0.1,0.3-0.1,0.4-0.2c0.1-0.1,0.3-0.2,0.4-0.3c0.1-0.1,0.2-0.2,0.3-0.4c0.1-0.1,0.1-0.3,0.1-0.4
		s-0.1-0.3-0.2-0.5c-0.1-0.2-0.2-0.3-0.3-0.4c-0.1-0.1-0.3-0.1-0.4-0.1c-0.1,0-0.3,0-0.4,0.1c-0.2,0.1-0.3,0.1-0.4,0.2
		C41.5,13.5,41.3,13.6,41.2,13.7z"/>
</g>
<g>
	<path class="st1" d="M4.9,35.6l2.2-2.4l0.5,1L6,35.8l0,0l2.2-0.1l0.4,1H5.3L4.9,35.6z"/>
	<path class="st1" d="M9.5,37.9L7,39.5l-0.6-0.9l2.5-1.7L9.5,37.9z M9.3,36.7l0.6-0.4l0.6,1l-0.6,0.4L9.3,36.7z"/>
	<path class="st1" d="M9,41c0,0.2,0.1,0.4,0.3,0.6c0.1,0.2,0.3,0.3,0.5,0.3c0.2,0.1,0.3,0.1,0.4,0l0.6,0.7c-0.4,0.1-0.7,0.1-1,0
		S9.2,42.3,8.9,42c-0.2-0.2-0.4-0.5-0.5-0.7c-0.1-0.2-0.2-0.5-0.2-0.7s0-0.4,0.1-0.6c0.1-0.2,0.2-0.4,0.4-0.5
		c0.2-0.2,0.4-0.3,0.6-0.3c0.2-0.1,0.4-0.1,0.6,0c0.2,0,0.4,0.1,0.7,0.2c0.2,0.1,0.4,0.3,0.6,0.5s0.4,0.5,0.5,0.7
		c0.1,0.2,0.1,0.5,0.1,0.7s-0.1,0.4-0.2,0.6c-0.1,0.2-0.3,0.4-0.4,0.5l-1.9-2.1C9.1,40.6,9,40.8,9,41z M11,40.8
		c0-0.2-0.1-0.3-0.3-0.5c-0.1-0.1-0.2-0.2-0.3-0.3c-0.1-0.1-0.2-0.1-0.3-0.1c-0.1,0-0.2,0-0.3,0c-0.1,0-0.1,0.1-0.2,0.1l1.2,1.3
		C10.9,41.1,11,40.9,11,40.8z"/>
	<path class="st1" d="M14,46l0.5-2.1l0,0l-1.6,1.4L12,44.7l0.5-3.2l1,0.6L13,44.2l0,0l1.6-1.4l0.9,0.5l-0.6,2.2l0,0l1.7-1.4l0.9,0.6
		l-2.6,1.9L14,46z"/>
	<path class="st1" d="M22,45.8l-0.1,0.5l-0.8-0.2l-0.3,1.5c0,0.1,0,0.2,0,0.3s0.2,0.1,0.3,0.2c0.1,0,0.1,0,0.2,0s0.1,0,0.2,0
		l-0.1,0.6c-0.1,0-0.2,0-0.3,0c-0.1,0-0.2,0-0.3-0.1c-0.2,0-0.3-0.1-0.5-0.1c-0.1-0.1-0.3-0.1-0.4-0.2c-0.1-0.1-0.2-0.2-0.2-0.3
		s0-0.2,0-0.4l0.4-1.7l-0.6-0.2l0.1-0.5l0.6,0.1l0.2-0.9l1,0.2l-0.2,0.9L22,45.8z"/>
	<path class="st1" d="M23.6,44.8l-0.1,1.6l0,0c0.1-0.2,0.3-0.3,0.5-0.4c0.2-0.1,0.4-0.1,0.6-0.1c0.3,0,0.5,0.1,0.7,0.1
		c0.2,0.1,0.3,0.2,0.4,0.3s0.2,0.2,0.2,0.4s0,0.3,0,0.5l-0.1,1.9L24.7,49l0.1-1.7c0-0.2,0-0.4-0.1-0.6c-0.1-0.1-0.3-0.2-0.5-0.2
		c-0.3,0-0.5,0-0.6,0.2c-0.1,0.1-0.2,0.3-0.2,0.7L23.3,49l-1.1-0.1l0.2-4.2L23.6,44.8z"/>
	<path class="st1" d="M28.3,48.1c0.2,0.1,0.4,0.1,0.7,0.1c0.2,0,0.4-0.1,0.5-0.2c0.1-0.1,0.2-0.2,0.2-0.3l0.9-0.2
		c-0.1,0.4-0.3,0.7-0.6,0.9s-0.6,0.3-1.1,0.4c-0.3,0-0.6,0.1-0.8,0c-0.3,0-0.5-0.1-0.7-0.2s-0.3-0.3-0.5-0.4
		c-0.1-0.2-0.2-0.4-0.2-0.6c0-0.2,0-0.4,0-0.6c0.1-0.2,0.2-0.4,0.3-0.6c0.2-0.2,0.3-0.3,0.6-0.4c0.2-0.1,0.5-0.2,0.8-0.3
		s0.6,0,0.9,0c0.3,0.1,0.5,0.2,0.7,0.3s0.3,0.3,0.4,0.5s0.2,0.4,0.2,0.7l-2.8,0.4C28,47.9,28.1,48,28.3,48.1z M29.3,46.4
		c-0.1-0.1-0.3-0.1-0.6-0.1c-0.2,0-0.3,0.1-0.4,0.1c-0.1,0.1-0.2,0.1-0.2,0.2S28,46.8,28,46.8s0,0.1,0,0.2l1.7-0.3
		C29.5,46.6,29.4,46.4,29.3,46.4z"/>
	<path class="st1" d="M34.8,44.2c-0.1,0.1-0.3,0.2-0.3,0.3c-0.1,0.1-0.1,0.2-0.1,0.3s0,0.2,0,0.4c0,0.1,0.1,0.2,0.1,0.3
		c0.1,0.1,0.1,0.2,0.2,0.3c0.1,0.1,0.2,0.2,0.3,0.2c0.1,0,0.2,0.1,0.3,0.1c0.1,0,0.3,0,0.4-0.1c0.2-0.1,0.4-0.3,0.4-0.4
		c0.1-0.2,0.1-0.3,0-0.5l0.9-0.5c0.1,0.4,0.1,0.8-0.1,1.1c-0.2,0.3-0.5,0.6-1,0.9c-0.3,0.1-0.5,0.2-0.8,0.3c-0.3,0-0.5,0-0.7,0
		s-0.4-0.1-0.6-0.3c-0.2-0.1-0.3-0.3-0.4-0.5c-0.1-0.2-0.2-0.4-0.2-0.6c0-0.2,0-0.4,0.1-0.6c0.1-0.2,0.2-0.4,0.4-0.6
		c0.2-0.2,0.4-0.4,0.7-0.5c0.2-0.1,0.4-0.2,0.6-0.2c0.2-0.1,0.4-0.1,0.6-0.1s0.4,0.1,0.5,0.1c0.2,0.1,0.3,0.2,0.4,0.4l-0.9,0.5
		C35.5,44.1,35.2,44,34.8,44.2z"/>
	<path class="st1" d="M37.2,43.2c-0.1-0.2-0.1-0.4,0-0.6c0-0.2,0.1-0.4,0.3-0.7s0.3-0.4,0.6-0.6c0.2-0.2,0.5-0.3,0.7-0.5
		c0.2-0.1,0.5-0.2,0.7-0.2s0.4,0,0.6,0.1s0.4,0.2,0.5,0.4s0.3,0.4,0.3,0.6c0.1,0.2,0.1,0.4,0,0.6c0,0.2-0.1,0.4-0.3,0.7
		c-0.1,0.2-0.3,0.4-0.6,0.6c-0.2,0.2-0.5,0.3-0.7,0.5c-0.2,0.1-0.5,0.2-0.7,0.2s-0.4,0-0.6-0.1c-0.2-0.1-0.4-0.2-0.5-0.4
		C37.4,43.7,37.3,43.5,37.2,43.2z M38.6,43.4c0.1,0.1,0.2,0.1,0.3,0.1s0.2,0,0.4,0c0.1,0,0.3-0.1,0.4-0.2c0.1-0.1,0.2-0.2,0.3-0.4
		c0.1-0.1,0.1-0.2,0.1-0.4c0-0.1,0-0.2-0.1-0.3s-0.1-0.2-0.2-0.3c-0.1-0.1-0.2-0.2-0.3-0.2c-0.1-0.1-0.2-0.1-0.3-0.1s-0.2,0-0.4,0
		c-0.1,0-0.3,0.1-0.4,0.2c-0.1,0.1-0.2,0.2-0.3,0.4C38,42.3,38,42.4,38,42.6c0,0.1,0,0.2,0.1,0.3s0.1,0.2,0.2,0.3
		C38.4,43.2,38.5,43.3,38.6,43.4z"/>
	<path class="st1" d="M43.7,38.9c0.1,0.2,0.1,0.4,0,0.6c-0.1,0.2-0.2,0.4-0.3,0.6c-0.2,0.2-0.4,0.4-0.6,0.5
		c-0.2,0.1-0.4,0.2-0.6,0.2c-0.2,0-0.4,0-0.6,0c-0.2-0.1-0.4-0.1-0.6-0.3c-0.2-0.1-0.3-0.3-0.4-0.4c-0.1-0.2-0.2-0.4-0.2-0.6
		c0-0.2,0-0.4,0-0.6s0.2-0.5,0.3-0.7s0.3-0.3,0.5-0.5s0.4-0.2,0.6-0.2l0,0l-1.2-0.9l0.6-0.9l3.4,2.5L44,39L43.7,38.9L43.7,38.9z
		 M42.5,38.1c-0.1,0-0.2-0.1-0.3-0.1s-0.2,0-0.3,0.1s-0.3,0.2-0.4,0.4c-0.1,0.1-0.2,0.3-0.2,0.4c0,0.1,0,0.2,0,0.4
		c0,0.1,0.1,0.2,0.2,0.3s0.2,0.2,0.3,0.3s0.2,0.1,0.3,0.2c0.1,0,0.2,0.1,0.4,0c0.1,0,0.2,0,0.4-0.1s0.2-0.2,0.3-0.3s0.2-0.3,0.2-0.4
		c0-0.1,0-0.2,0-0.4c0-0.1-0.1-0.2-0.2-0.3c-0.1-0.1-0.2-0.2-0.3-0.3C42.7,38.2,42.6,38.1,42.5,38.1z"/>
	<path class="st1" d="M45.1,35.7c0.2-0.1,0.3-0.3,0.4-0.6c0.1-0.2,0.1-0.4,0.1-0.6c0-0.2-0.1-0.3-0.1-0.4l0.4-0.9
		c0.3,0.3,0.4,0.6,0.5,0.9c0,0.3,0,0.7-0.2,1.1c-0.1,0.3-0.3,0.5-0.4,0.7c-0.2,0.2-0.3,0.4-0.5,0.5s-0.4,0.2-0.6,0.2
		c-0.2,0-0.4,0-0.7-0.1c-0.2-0.1-0.4-0.2-0.5-0.4s-0.3-0.4-0.3-0.6c-0.1-0.2-0.1-0.5-0.1-0.7c0-0.3,0.1-0.5,0.2-0.8
		c0.1-0.3,0.3-0.6,0.5-0.7c0.2-0.2,0.4-0.3,0.6-0.4c0.2-0.1,0.4-0.1,0.7-0.1c0.2,0,0.4,0.1,0.7,0.2l-1.3,2.8
		C44.7,35.9,44.9,35.8,45.1,35.7z M44.1,34c-0.1,0.1-0.3,0.2-0.4,0.5c-0.1,0.2-0.1,0.3-0.1,0.4c0,0.1,0,0.2,0.1,0.3s0.1,0.2,0.1,0.2
		c0.1,0.1,0.1,0.1,0.2,0.1l0.7-1.6C44.4,33.9,44.2,33.9,44.1,34z"/>
</g>
</svg>
