<?xml version="1.0" encoding="utf-8"?>
<!-- Generator: Adobe Illustrator 28.0.0, SVG Export Plug-In . SVG Version: 6.00 Build 0)  -->
<svg version="1.1" id="Layer_1" xmlns="http://www.w3.org/2000/svg" xmlns:xlink="http://www.w3.org/1999/xlink" x="0px" y="0px"
	 viewBox="0 0 42.5 48" style="enable-background:new 0 0 42.5 48;" xml:space="preserve">
<style type="text/css">
	.st0{fill:#FFFFFF;}
</style>
<path class="st0" d="M38.6,25.4c0,0.1,0,0.1,0,0.2c-0.1,2.5-0.7,4.9-1.8,7.1c-1.7,3.2-4,5.7-7.1,7.5c-1,0.6-2,1.1-3.1,1.4
	c-0.1,0.1-0.3,0.1-0.6,0.1c-0.4-0.1-0.7-0.4-0.7-0.8c0-0.1,0-0.1,0-0.1c0-1.6,0-3.1,0-4.7c0-0.6-0.1-1.1-0.2-1.7
	c-0.1-0.7-0.5-1.3-0.9-1.7c0,0,0,0,0-0.1c0.1,0,0.1,0,0.1,0c1.1-0.1,2.2-0.3,3.2-0.7c1-0.4,1.9-0.9,2.6-1.7c0.7-0.7,1.2-1.7,1.5-2.6
	c0.3-0.7,0.4-1.5,0.5-2.2c0.1-0.5,0.1-1.1,0.1-1.7c0-1.7-0.6-3.2-1.7-4.5c-0.1-0.1-0.1-0.1-0.1-0.2c0.3-0.8,0.3-1.6,0.3-2.4
	c-0.1-0.7-0.2-1.3-0.5-2c0-0.1-0.1-0.1-0.1-0.1c-0.4-0.1-0.8,0-1.1,0.1c-0.8,0.1-1.5,0.5-2.2,0.9c-0.5,0.2-0.9,0.5-1.3,0.7
	c-0.1,0.1-0.2,0.1-0.3,0.1c-0.8-0.2-1.6-0.4-2.4-0.5c-1-0.1-2-0.1-2.9-0.1c-1.1,0.1-2.1,0.3-3.2,0.5c-0.1,0-0.1,0-0.2-0.1
	c-0.7-0.5-1.3-0.9-2.1-1.2c-0.5-0.2-1.1-0.4-1.7-0.5c-0.3-0.1-0.5-0.1-0.9-0.1c-0.1,0-0.1,0.1-0.2,0.1c-0.4,1-0.5,2-0.5,3
	c0.1,0.5,0.1,0.9,0.3,1.4c0,0.1,0,0.1-0.1,0.2c-0.8,0.9-1.3,2.1-1.6,3.3c-0.1,0.4-0.1,0.8-0.1,1.2c0,0.9,0.1,1.8,0.2,2.7
	c0.2,1.1,0.6,2.1,1.3,3s1.5,1.6,2.5,2.1c0.8,0.4,1.6,0.7,2.4,0.8c0.5,0.1,1.1,0.2,1.6,0.3h0.1v0.1c-0.5,0.4-0.8,1-1,1.7
	c0,0.2-0.1,0.3-0.1,0.5c0,0.1-0.1,0.1-0.1,0.1c-0.6,0.3-1.3,0.5-1.9,0.5c-1.1,0-2-0.5-2.6-1.3c-0.2-0.2-0.3-0.5-0.5-0.7
	c-0.3-0.5-0.7-0.9-1.1-1.2c-0.4-0.3-0.8-0.5-1.3-0.6c-0.3-0.1-0.5-0.1-0.8,0c-0.1,0-0.1,0.1-0.2,0.1C8,31.7,7.9,31.8,8,31.9
	c0.1,0.4,0.2,0.5,0.2,0.6c0.1,0.2,0.3,0.3,0.5,0.4c0.2,0.1,0.4,0.3,0.6,0.5c0.5,0.6,1,1.3,1.3,2.1c0.4,1,1.1,1.6,2,2
	c0.5,0.1,0.9,0.3,1.3,0.3c0.8,0.1,1.7,0,2.4-0.1h0.1c0,0.1,0,0.1,0,0.1c0,0.9,0,2,0,3c0,0.1,0,0.2-0.1,0.3c0,0.3-0.3,0.5-0.7,0.6
	c-0.2,0-0.4,0-0.6-0.1c-4.4-1.5-8-4.8-10.1-8.9c-0.7-1.5-1.2-3-1.5-4.6c-0.1-0.9-0.2-1.7-0.3-2.5c0-0.9,0-1.7,0.1-2.6
	c0.4-3.6,1.8-6.8,4.2-9.6c2.1-2.3,4.5-4,7.4-5.1c1-0.3,2.1-0.6,3.1-0.8c0.7-0.1,1.3-0.1,2.1-0.2c0.1,0,0.1,0,0.1,0
	c0.4,0,0.7,0,1.1,0c0.1,0,0.1,0,0.1,0c0.8,0,1.3,0,1.8,0.1c1,0.1,2,0.3,3,0.6c4.2,1.3,7.5,3.8,9.8,7.5c1.7,2.6,2.6,5.6,2.6,8.7
	c0,0.1,0,0.1,0,0.2C38.6,24.7,38.6,25,38.6,25.4z"/>
<g>
	<path class="st0" d="M3.6,9.6c-0.1,0-0.3,0-0.4,0.1C3,9.7,2.9,9.8,2.8,9.9c-0.1,0.1-0.2,0.2-0.3,0.3c-0.2,0.2-0.3,0.5-0.3,0.7
		c0,0.2,0,0.4,0.1,0.6c0.1,0.2,0.2,0.4,0.4,0.6c0.2,0.2,0.3,0.3,0.6,0.5c0.2,0.1,0.4,0.2,0.6,0.3C4.1,13,4.3,13,4.5,13
		c0.2,0,0.4,0,0.6-0.1c0.2-0.1,0.4-0.3,0.5-0.5c0.2-0.3,0.3-0.6,0.2-0.9c-0.1-0.3-0.3-0.6-0.5-0.9l0.7-1c0.3,0.2,0.5,0.5,0.7,0.8
		C6.9,10.6,7,10.9,7,11.2c0,0.3,0,0.6-0.1,0.9c-0.1,0.3-0.2,0.6-0.4,0.9c-0.2,0.4-0.5,0.6-0.9,0.8c-0.3,0.2-0.7,0.3-1,0.4
		s-0.7,0-1.1-0.1c-0.4-0.1-0.7-0.3-1.1-0.5c-0.4-0.2-0.6-0.5-0.9-0.8c-0.2-0.3-0.4-0.6-0.5-1c-0.1-0.4-0.1-0.7,0-1.1
		c0.1-0.4,0.2-0.7,0.5-1.1C1.8,9.3,2,9.1,2.2,8.9S2.7,8.6,3,8.5c0.3-0.1,0.5-0.1,0.8-0.1c0.3,0,0.6,0.1,0.9,0.3L4,9.7
		C3.9,9.7,3.7,9.6,3.6,9.6z"/>
	<path class="st0" d="M5.2,5.7l3.9,4.1l-0.8,0.8L4.4,6.5L5.2,5.7z"/>
	<path class="st0" d="M6.9,5.5L6.3,4.8l0.9-0.7l0.6,0.7L6.9,5.5z M8.2,5.3l2.5,3.3L9.8,9.3L7.3,6L8.2,5.3z"/>
	<path class="st0" d="M11.4,4.3c-0.2,0.1-0.3,0.2-0.3,0.3c-0.1,0.1-0.1,0.3-0.1,0.4s0,0.3,0.1,0.5c0,0.2,0.1,0.3,0.2,0.4
		c0.1,0.1,0.2,0.3,0.3,0.4c0.1,0.1,0.2,0.2,0.3,0.3c0.1,0.1,0.3,0.1,0.4,0.1s0.3,0,0.5-0.1c0.2-0.1,0.4-0.3,0.5-0.5s0-0.4,0-0.7
		l1-0.5c0.2,0.5,0.2,1,0,1.4c-0.2,0.4-0.5,0.8-1,1c-0.3,0.1-0.6,0.2-0.8,0.3c-0.3,0-0.5,0-0.8-0.1c-0.2-0.1-0.5-0.2-0.7-0.4
		c-0.2-0.2-0.4-0.4-0.5-0.7C10,6.2,9.9,5.9,9.8,5.6c0-0.3,0-0.6,0-0.8s0.2-0.5,0.4-0.7c0.2-0.2,0.4-0.4,0.7-0.6
		c0.2-0.1,0.4-0.2,0.7-0.2c0.2,0,0.5-0.1,0.7,0c0.2,0,0.4,0.1,0.6,0.2c0.2,0.1,0.4,0.3,0.5,0.5l-1,0.5C12.2,4.1,11.8,4,11.4,4.3z"/>
	<path class="st0" d="M14.9,0.5l0.7,3l1.1-1.8l1.3-0.3l-1.2,1.8L19,5.3l-1.3,0.3l-1.5-1.5l-0.3,0.5L16.2,6l-1.1,0.3l-1.3-5.6
		L14.9,0.5z"/>
	<path class="st0" d="M23,1.3l-0.1,0.5l0,0c0.2-0.2,0.4-0.3,0.6-0.4c0.2-0.1,0.5-0.1,0.7,0c0.3,0.1,0.5,0.1,0.7,0.3
		c0.2,0.1,0.3,0.3,0.4,0.6C25.5,2.2,25.7,2,26,2c0.2-0.1,0.5-0.1,0.8-0.1c0.2,0,0.4,0.1,0.6,0.2c0.2,0.1,0.3,0.2,0.4,0.3
		c0.1,0.1,0.2,0.3,0.2,0.5c0,0.2,0,0.4,0,0.7l-0.5,2.7l-1.1-0.2l0.5-2.3c0-0.1,0-0.3,0.1-0.4c0-0.1,0-0.2,0-0.3
		c0-0.1-0.1-0.2-0.2-0.3c-0.1-0.1-0.2-0.1-0.4-0.2c-0.2,0-0.3,0-0.4,0c-0.1,0-0.2,0.1-0.3,0.2c-0.1,0.1-0.1,0.2-0.2,0.3
		s-0.1,0.2-0.1,0.4l-0.4,2.3l-1.1-0.2l0.5-2.3c0-0.1,0-0.2,0.1-0.4c0-0.1,0-0.2,0-0.3c0-0.1-0.1-0.2-0.1-0.3
		c-0.1-0.1-0.2-0.1-0.4-0.2c-0.1,0-0.1,0-0.2,0c-0.1,0-0.2,0-0.3,0.1c-0.1,0-0.2,0.1-0.3,0.2c-0.1,0.1-0.1,0.3-0.2,0.5l-0.5,2.4
		l-1.1-0.2L22,1.1L23,1.3z"/>
	<path class="st0" d="M29.3,6.5c0.1,0.2,0.2,0.4,0.5,0.6c0.2,0.1,0.4,0.2,0.6,0.1c0.2,0,0.3-0.1,0.4-0.2l0.9,0.5
		C31.4,7.8,31,8,30.6,8.1c-0.4,0-0.8-0.1-1.2-0.3c-0.3-0.2-0.5-0.3-0.7-0.6c-0.2-0.2-0.3-0.5-0.4-0.7c-0.1-0.3-0.1-0.5,0-0.8
		c0-0.3,0.1-0.6,0.3-0.8c0.2-0.3,0.3-0.5,0.6-0.7c0.2-0.2,0.5-0.3,0.7-0.4c0.3-0.1,0.5-0.1,0.8-0.1c0.3,0,0.6,0.1,0.8,0.3
		c0.3,0.2,0.5,0.4,0.7,0.6c0.2,0.2,0.3,0.5,0.3,0.8s0,0.6-0.1,0.9c-0.1,0.3-0.2,0.6-0.4,0.8l-2.6-1.5C29.3,5.9,29.3,6.2,29.3,6.5z
		 M31.5,5.2c0-0.2-0.2-0.4-0.4-0.5c-0.2-0.1-0.3-0.1-0.4-0.1c-0.1,0-0.3,0-0.4,0.1c-0.1,0-0.2,0.1-0.3,0.2c-0.1,0.1-0.1,0.1-0.2,0.2
		l1.6,0.9C31.5,5.6,31.6,5.4,31.5,5.2z"/>
	<path class="st0" d="M37.6,9.2l-0.6,0.5l-0.6-0.6L35,10.5c-0.1,0.1-0.2,0.2-0.2,0.3c0,0.1,0.1,0.2,0.2,0.3c0,0,0.1,0.1,0.1,0.1
		c0,0,0.1,0.1,0.1,0.1L34.6,12c-0.1-0.1-0.2-0.1-0.2-0.2c-0.1-0.1-0.2-0.2-0.2-0.2c-0.1-0.1-0.2-0.3-0.3-0.4
		c-0.1-0.1-0.1-0.3-0.2-0.4c0-0.1,0-0.3,0-0.4c0-0.1,0.1-0.3,0.3-0.4l1.8-1.7l-0.5-0.5l0.6-0.5l0.5,0.5l0.9-0.8L38,7.7l-0.9,0.8
		L37.6,9.2z"/>
	<path class="st0" d="M37.4,10.6c0.3-0.1,0.6,0,0.8,0s0.5,0.2,0.7,0.3c0.2,0.2,0.4,0.4,0.6,0.7c0.2,0.3,0.3,0.6,0.3,0.8s0,0.5,0,0.8
		c-0.1,0.3-0.2,0.5-0.4,0.7s-0.4,0.4-0.7,0.6c-0.3,0.2-0.6,0.3-0.8,0.3s-0.5,0-0.8,0c-0.3-0.1-0.5-0.2-0.7-0.4
		c-0.2-0.2-0.4-0.4-0.6-0.7c-0.2-0.3-0.3-0.6-0.3-0.8c0-0.3,0-0.5,0-0.8s0.2-0.5,0.4-0.7c0.2-0.2,0.4-0.4,0.7-0.6
		S37.1,10.7,37.4,10.6z M36.7,12.2c-0.1,0.1-0.2,0.2-0.3,0.4c-0.1,0.1-0.1,0.3-0.1,0.4c0,0.1,0.1,0.3,0.2,0.5s0.2,0.3,0.3,0.4
		s0.3,0.1,0.4,0.1s0.3,0,0.4-0.1c0.2-0.1,0.3-0.1,0.4-0.2c0.1-0.1,0.3-0.2,0.4-0.3c0.1-0.1,0.2-0.2,0.3-0.4c0.1-0.1,0.1-0.3,0.1-0.4
		s-0.1-0.3-0.2-0.5c-0.1-0.2-0.2-0.3-0.3-0.4c-0.1-0.1-0.3-0.1-0.4-0.1c-0.1,0-0.3,0-0.4,0.1c-0.2,0.1-0.3,0.1-0.4,0.2
		C37,12,36.8,12.1,36.7,12.2z"/>
</g>
<g>
	<path class="st0" d="M0.4,34.1l2.2-2.4l0.5,1l-1.6,1.6l0,0l2.2-0.1l0.4,1l-3.3,0L0.4,34.1z"/>
	<path class="st0" d="M5,36.4L2.5,38l-0.6-0.9l2.5-1.7L5,36.4z M4.8,35.2l0.6-0.4L6,35.8l-0.6,0.4L4.8,35.2z"/>
	<path class="st0" d="M4.5,39.5c0,0.2,0.1,0.4,0.3,0.6c0.1,0.2,0.3,0.3,0.5,0.3c0.2,0.1,0.3,0.1,0.4,0l0.6,0.7c-0.4,0.1-0.7,0.1-1,0
		C5,41,4.7,40.8,4.4,40.5C4.2,40.3,4,40,3.9,39.8c-0.1-0.2-0.2-0.5-0.2-0.7c0-0.2,0-0.4,0.1-0.6c0.1-0.2,0.2-0.4,0.4-0.5
		c0.2-0.2,0.4-0.3,0.6-0.3c0.2-0.1,0.4-0.1,0.6,0c0.2,0,0.4,0.1,0.7,0.2c0.2,0.1,0.4,0.3,0.6,0.5c0.2,0.2,0.4,0.5,0.5,0.7
		c0.1,0.2,0.1,0.5,0.1,0.7c0,0.2-0.1,0.4-0.2,0.6c-0.1,0.2-0.3,0.4-0.4,0.5l-1.9-2.1C4.6,39.1,4.5,39.3,4.5,39.5z M6.5,39.3
		c0-0.2-0.1-0.3-0.3-0.5c-0.1-0.1-0.2-0.2-0.3-0.3c-0.1-0.1-0.2-0.1-0.3-0.1c-0.1,0-0.2,0-0.3,0c-0.1,0-0.1,0.1-0.2,0.1l1.2,1.3
		C6.4,39.6,6.5,39.4,6.5,39.3z"/>
	<path class="st0" d="M9.5,44.5l0.5-2.1l0,0l-1.6,1.4l-0.9-0.6L8,40l1,0.6l-0.5,2.1l0,0l1.6-1.4l0.9,0.5L10.4,44l0,0l1.7-1.4
		l0.9,0.6l-2.6,1.9L9.5,44.5z"/>
	<path class="st0" d="M17.5,44.3l-0.1,0.5l-0.8-0.2l-0.3,1.5c0,0.1,0,0.2,0,0.3s0.2,0.1,0.3,0.2c0.1,0,0.1,0,0.2,0
		c0.1,0,0.1,0,0.2,0l-0.1,0.6c-0.1,0-0.2,0-0.3,0c-0.1,0-0.2,0-0.3-0.1c-0.2,0-0.3-0.1-0.5-0.1c-0.1-0.1-0.3-0.1-0.4-0.2
		c-0.1-0.1-0.2-0.2-0.2-0.3s0-0.2,0-0.4l0.4-1.7L15,44.2l0.1-0.5l0.6,0.1l0.2-0.9l1,0.2l-0.2,0.9L17.5,44.3z"/>
	<path class="st0" d="M19.1,43.3L19,44.9l0,0c0.1-0.2,0.3-0.3,0.5-0.4c0.2-0.1,0.4-0.1,0.6-0.1c0.3,0,0.5,0.1,0.7,0.1
		c0.2,0.1,0.3,0.2,0.4,0.3c0.1,0.1,0.2,0.2,0.2,0.4c0,0.2,0,0.3,0,0.5l-0.1,1.9l-1.1-0.1l0.1-1.7c0-0.2,0-0.4-0.1-0.6
		c-0.1-0.1-0.3-0.2-0.5-0.2c-0.3,0-0.5,0-0.6,0.2c-0.1,0.1-0.2,0.3-0.2,0.7l-0.1,1.6l-1.1-0.1l0.2-4.2L19.1,43.3z"/>
	<path class="st0" d="M23.8,46.6c0.2,0.1,0.4,0.1,0.7,0.1c0.2,0,0.4-0.1,0.5-0.2c0.1-0.1,0.2-0.2,0.2-0.3l0.9-0.2
		c-0.1,0.4-0.3,0.7-0.6,0.9s-0.6,0.3-1.1,0.4c-0.3,0-0.6,0.1-0.8,0c-0.3,0-0.5-0.1-0.7-0.2s-0.3-0.3-0.5-0.4
		c-0.1-0.2-0.2-0.4-0.2-0.6c0-0.2,0-0.4,0-0.6c0.1-0.2,0.2-0.4,0.3-0.6c0.2-0.2,0.3-0.3,0.6-0.4c0.2-0.1,0.5-0.2,0.8-0.3
		c0.3-0.1,0.6,0,0.9,0c0.3,0.1,0.5,0.2,0.7,0.3c0.2,0.1,0.3,0.3,0.4,0.5s0.2,0.4,0.2,0.7l-2.8,0.4C23.5,46.4,23.6,46.5,23.8,46.6z
		 M24.8,44.9c-0.1-0.1-0.3-0.1-0.6-0.1c-0.2,0-0.3,0.1-0.4,0.1c-0.1,0.1-0.2,0.1-0.2,0.2s-0.1,0.2-0.1,0.2s0,0.1,0,0.2l1.7-0.3
		C25,45.1,24.9,44.9,24.8,44.9z"/>
	<path class="st0" d="M30.3,42.7C30.2,42.8,30,42.9,30,43c-0.1,0.1-0.1,0.2-0.1,0.3c0,0.1,0,0.2,0,0.4c0,0.1,0.1,0.2,0.1,0.3
		c0.1,0.1,0.1,0.2,0.2,0.3c0.1,0.1,0.2,0.2,0.3,0.2c0.1,0,0.2,0.1,0.3,0.1c0.1,0,0.3,0,0.4-0.1c0.2-0.1,0.4-0.3,0.4-0.4
		c0.1-0.2,0.1-0.3,0-0.5l0.9-0.5c0.1,0.4,0.1,0.8-0.1,1.1c-0.2,0.3-0.5,0.6-1,0.9c-0.3,0.1-0.5,0.2-0.8,0.3c-0.3,0-0.5,0-0.7,0
		c-0.2,0-0.4-0.1-0.6-0.3c-0.2-0.1-0.3-0.3-0.4-0.5c-0.1-0.2-0.2-0.4-0.2-0.6c0-0.2,0-0.4,0.1-0.6c0.1-0.2,0.2-0.4,0.4-0.6
		c0.2-0.2,0.4-0.4,0.7-0.5c0.2-0.1,0.4-0.2,0.6-0.2c0.2-0.1,0.4-0.1,0.6-0.1c0.2,0,0.4,0.1,0.5,0.1c0.2,0.1,0.3,0.2,0.4,0.4
		l-0.9,0.5C31,42.6,30.7,42.5,30.3,42.7z"/>
	<path class="st0" d="M32.7,41.7c-0.1-0.2-0.1-0.4,0-0.6c0-0.2,0.1-0.4,0.3-0.7s0.3-0.4,0.6-0.6c0.2-0.2,0.5-0.3,0.7-0.5
		c0.2-0.1,0.5-0.2,0.7-0.2c0.2,0,0.4,0,0.6,0.1s0.4,0.2,0.5,0.4s0.3,0.4,0.3,0.6c0.1,0.2,0.1,0.4,0,0.6c0,0.2-0.1,0.4-0.3,0.7
		c-0.1,0.2-0.3,0.4-0.6,0.6c-0.2,0.2-0.5,0.3-0.7,0.5c-0.2,0.1-0.5,0.2-0.7,0.2c-0.2,0-0.4,0-0.6-0.1c-0.2-0.1-0.4-0.2-0.5-0.4
		C32.9,42.2,32.8,42,32.7,41.7z M34.1,41.9c0.1,0.1,0.2,0.1,0.3,0.1c0.1,0,0.2,0,0.4,0c0.1,0,0.3-0.1,0.4-0.2
		c0.1-0.1,0.2-0.2,0.3-0.4c0.1-0.1,0.1-0.2,0.1-0.4c0-0.1,0-0.2-0.1-0.3c-0.1-0.1-0.1-0.2-0.2-0.3c-0.1-0.1-0.2-0.2-0.3-0.2
		c-0.1-0.1-0.2-0.1-0.3-0.1c-0.1,0-0.2,0-0.4,0c-0.1,0-0.3,0.1-0.4,0.2c-0.1,0.1-0.2,0.2-0.3,0.4c-0.1,0.1-0.1,0.2-0.1,0.4
		c0,0.1,0,0.2,0.1,0.3s0.1,0.2,0.2,0.3C33.9,41.7,34,41.8,34.1,41.9z"/>
	<path class="st0" d="M39.2,37.4c0.1,0.2,0.1,0.4,0,0.6c-0.1,0.2-0.2,0.4-0.3,0.6c-0.2,0.2-0.4,0.4-0.6,0.5
		c-0.2,0.1-0.4,0.2-0.6,0.2c-0.2,0-0.4,0-0.6,0c-0.2-0.1-0.4-0.1-0.6-0.3c-0.2-0.1-0.3-0.3-0.4-0.4c-0.1-0.2-0.2-0.4-0.2-0.6
		c0-0.2,0-0.4,0-0.6s0.2-0.5,0.3-0.7c0.1-0.2,0.3-0.3,0.5-0.5s0.4-0.2,0.6-0.2l0,0l-1.2-0.9l0.6-0.9l3.4,2.5l-0.6,0.8L39.2,37.4
		L39.2,37.4z M38,36.6c-0.1,0-0.2-0.1-0.3-0.1c-0.1,0-0.2,0-0.3,0.1S37.1,36.8,37,37c-0.1,0.1-0.2,0.3-0.2,0.4c0,0.1,0,0.2,0,0.4
		c0,0.1,0.1,0.2,0.2,0.3s0.2,0.2,0.3,0.3c0.1,0.1,0.2,0.1,0.3,0.2c0.1,0,0.2,0.1,0.4,0c0.1,0,0.2,0,0.4-0.1s0.2-0.2,0.3-0.3
		c0.1-0.1,0.2-0.3,0.2-0.4c0-0.1,0-0.2,0-0.4c0-0.1-0.1-0.2-0.2-0.3c-0.1-0.1-0.2-0.2-0.3-0.3C38.2,36.7,38.1,36.6,38,36.6z"/>
	<path class="st0" d="M40.6,34.2c0.2-0.1,0.3-0.3,0.4-0.6c0.1-0.2,0.1-0.4,0.1-0.6c0-0.2-0.1-0.3-0.1-0.4l0.4-0.9
		c0.3,0.3,0.4,0.6,0.5,0.9c0,0.3,0,0.7-0.2,1.1c-0.1,0.3-0.3,0.5-0.4,0.7c-0.2,0.2-0.3,0.4-0.5,0.5c-0.2,0.1-0.4,0.2-0.6,0.2
		c-0.2,0-0.4,0-0.7-0.1c-0.2-0.1-0.4-0.2-0.5-0.4c-0.1-0.2-0.3-0.4-0.3-0.6c-0.1-0.2-0.1-0.5-0.1-0.7c0-0.3,0.1-0.5,0.2-0.8
		c0.1-0.3,0.3-0.6,0.5-0.7c0.2-0.2,0.4-0.3,0.6-0.4c0.2-0.1,0.4-0.1,0.7-0.1c0.2,0,0.4,0.1,0.7,0.2L40,34.3
		C40.2,34.4,40.4,34.3,40.6,34.2z M39.6,32.5c-0.1,0.1-0.3,0.2-0.4,0.5c-0.1,0.2-0.1,0.3-0.1,0.4c0,0.1,0,0.2,0.1,0.3
		s0.1,0.2,0.1,0.2c0.1,0.1,0.1,0.1,0.2,0.1l0.7-1.6C39.9,32.4,39.7,32.4,39.6,32.5z"/>
</g>
</svg>
