<?xml version="1.0" encoding="utf-8"?>
<!-- Generator: Adobe Illustrator 28.0.0, SVG Export Plug-In . SVG Version: 6.00 Build 0)  -->
<svg version="1.1" id="Layer_1" xmlns="http://www.w3.org/2000/svg" xmlns:xlink="http://www.w3.org/1999/xlink" x="0px" y="0px"
	 viewBox="0 0 36.2 35.5" style="enable-background:new 0 0 36.2 35.5;" xml:space="preserve">
<style type="text/css">
	.st0{fill:#FFFFFF;}
</style>
<path class="st0" d="M35.7,18.5c0,0.1,0,0.1,0,0.2c-0.1,2.5-0.7,4.9-1.8,7.1c-1.7,3.2-4,5.7-7.1,7.5c-1,0.6-2,1.1-3.1,1.4
	c-0.1,0.1-0.3,0.1-0.6,0.1c-0.4-0.1-0.7-0.4-0.7-0.8c0-0.1,0-0.1,0-0.1c0-1.6,0-3.1,0-4.7c0-0.6-0.1-1.1-0.2-1.7
	c-0.1-0.7-0.5-1.3-0.9-1.7c0,0,0,0,0-0.1c0.1,0,0.1,0,0.1,0c1.1-0.1,2.2-0.3,3.2-0.7c1-0.4,1.9-0.9,2.6-1.7c0.7-0.7,1.2-1.7,1.5-2.6
	c0.3-0.7,0.4-1.5,0.5-2.2c0.1-0.5,0.1-1.1,0.1-1.7c0-1.7-0.6-3.2-1.7-4.5c-0.1-0.1-0.1-0.1-0.1-0.2c0.3-0.8,0.3-1.6,0.3-2.4
	c-0.1-0.7-0.2-1.3-0.5-2c0-0.1-0.1-0.1-0.1-0.1c-0.4-0.1-0.8,0-1.1,0.1c-0.8,0.1-1.5,0.5-2.2,0.9c-0.5,0.2-0.9,0.5-1.3,0.7
	c-0.1,0.1-0.2,0.1-0.3,0.1C21.5,9.2,20.7,9,19.9,9c-1-0.1-2-0.1-2.9-0.1c-1.1,0.1-2.1,0.3-3.2,0.5c-0.1,0-0.1,0-0.2-0.1
	c-0.7-0.5-1.3-0.9-2.1-1.2C11,8,10.4,7.8,9.8,7.7C9.5,7.6,9.3,7.6,9,7.6c-0.1,0-0.1,0.1-0.2,0.1c-0.4,1-0.5,2-0.5,3
	c0.1,0.5,0.1,0.9,0.3,1.4c0,0.1,0,0.1-0.1,0.2c-0.8,0.9-1.3,2.1-1.6,3.3c-0.1,0.4-0.1,0.8-0.1,1.2c0,0.9,0.1,1.8,0.2,2.7
	c0.2,1.1,0.6,2.1,1.3,3c0.7,0.9,1.5,1.6,2.5,2.1c0.8,0.4,1.6,0.7,2.4,0.8c0.5,0.1,1.1,0.2,1.6,0.3h0.1v0.1c-0.5,0.4-0.8,1-1,1.7
	c0,0.2-0.1,0.3-0.1,0.5c0,0.1-0.1,0.1-0.1,0.1c-0.6,0.3-1.3,0.5-1.9,0.5c-1.1,0-2-0.5-2.6-1.3c-0.2-0.2-0.3-0.5-0.5-0.7
	c-0.3-0.5-0.7-0.9-1.1-1.2c-0.4-0.3-0.8-0.5-1.3-0.6c-0.3-0.1-0.5-0.1-0.8,0c-0.1,0-0.1,0.1-0.2,0.1c-0.1,0.1-0.2,0.2-0.1,0.3
	c0.1,0.1,0.1,0.2,0.2,0.3c0.1,0.2,0.3,0.3,0.5,0.4c0.2,0.1,0.4,0.3,0.6,0.5c0.5,0.6,1,1.3,1.3,2.1c0.4,1,1.1,1.6,2,2
	c0.5,0.1,0.9,0.3,1.3,0.3c0.8,0.1,1.7,0,2.4-0.1c0,0,0.1,0,0.1,0c0,0.1,0,0.1,0,0.1c0,0.9,0,2,0,3c0,0.1,0,0.2-0.1,0.3
	c0,0.3-0.3,0.5-0.7,0.6c-0.2,0-0.4,0-0.6-0.1c-4.4-1.5-8-4.8-10.1-8.9c-0.7-1.5-1.2-3-1.5-4.6c-0.1-0.9-0.2-1.7-0.3-2.5
	c0-0.9,0-1.7,0.1-2.6c0.4-3.6,1.8-6.8,4.2-9.6c2.1-2.3,4.5-4,7.4-5.1c1-0.3,2.1-0.6,3.1-0.8c0.7-0.1,1.3-0.1,2.1-0.2
	c0.1,0,0.1,0,0.1,0c0.4,0,0.7,0,1.1,0c0.1,0,0.1,0,0.1,0c0.5,0.1,0.9,0.1,1.5,0.1c1,0.1,2,0.3,3,0.6c4.2,1.3,7.5,3.8,9.8,7.5
	c1.7,2.6,2.6,5.6,2.6,8.7c0,0.1,0,0.1,0,0.2C35.7,17.8,35.7,18.2,35.7,18.5z"/>
</svg>
