<?xml version="1.0" encoding="utf-8"?>
<!-- Generator: Adobe Illustrator 28.0.0, SVG Export Plug-In . SVG Version: 6.00 Build 0)  -->
<svg version="1.1" id="Layer_1" xmlns="http://www.w3.org/2000/svg" xmlns:xlink="http://www.w3.org/1999/xlink" x="0px" y="0px"
	 viewBox="0 0 5.3 5.2" style="enable-background:new 0 0 5.3 5.2;" xml:space="preserve">
<path d="M5.3,2.7C5.3,2.8,5.3,2.8,5.3,2.7c0,0.4-0.1,0.8-0.3,1.1C4.8,4.3,4.5,4.7,4,5C3.8,5.1,3.7,5.1,3.5,5.2c0,0,0,0-0.1,0
	c-0.1,0-0.1-0.1-0.1-0.1c0,0,0,0,0,0c0-0.2,0-0.5,0-0.7c0-0.1,0-0.2,0-0.2c0-0.1-0.1-0.2-0.1-0.2c0,0,0,0,0,0c0,0,0,0,0,0
	c0.2,0,0.3,0,0.5-0.1c0.2-0.1,0.3-0.1,0.4-0.2s0.2-0.2,0.2-0.4c0-0.1,0.1-0.2,0.1-0.3c0-0.1,0-0.2,0-0.2c0-0.3-0.1-0.5-0.3-0.7
	c0,0,0,0,0,0c0-0.1,0.1-0.2,0-0.4c0-0.1,0-0.2-0.1-0.3c0,0,0,0,0,0c-0.1,0-0.1,0-0.2,0c-0.1,0-0.2,0.1-0.3,0.1
	c-0.1,0-0.1,0.1-0.2,0.1c0,0,0,0,0,0c-0.1,0-0.2-0.1-0.4-0.1c-0.2,0-0.3,0-0.4,0c-0.2,0-0.3,0-0.5,0.1c0,0,0,0,0,0
	C1.9,1.3,1.8,1.2,1.7,1.2c-0.1,0-0.2-0.1-0.3-0.1c0,0-0.1,0-0.1,0c0,0,0,0,0,0C1.2,1.3,1.2,1.4,1.2,1.6c0,0.1,0,0.1,0.1,0.2
	c0,0,0,0,0,0C1.1,2,1,2.1,1,2.3c0,0.1,0,0.1,0,0.2c0,0.1,0,0.3,0,0.4c0,0.2,0.1,0.3,0.2,0.5s0.2,0.2,0.4,0.3
	c0.1,0.1,0.2,0.1,0.4,0.1c0.1,0,0.2,0,0.2,0h0v0C2.1,3.9,2.1,4,2,4.1c0,0,0,0,0,0.1c0,0,0,0,0,0c-0.1,0-0.2,0.1-0.3,0.1
	c-0.2,0-0.3-0.1-0.4-0.2c0,0-0.1-0.1-0.1-0.1c0-0.1-0.1-0.1-0.2-0.2C1,3.8,1,3.7,0.9,3.7c0,0-0.1,0-0.1,0c0,0,0,0,0,0c0,0,0,0,0,0
	c0,0,0,0,0,0c0,0,0.1,0,0.1,0.1c0,0,0.1,0,0.1,0.1C1,4,1.1,4.1,1.1,4.3c0.1,0.2,0.2,0.2,0.3,0.3c0.1,0,0.1,0,0.2,0
	c0.1,0,0.2,0,0.4,0c0,0,0,0,0,0c0,0,0,0,0,0c0,0.1,0,0.3,0,0.5c0,0,0,0,0,0.1c0,0,0,0.1-0.1,0.1c0,0-0.1,0-0.1,0
	C1.1,5,0.6,4.5,0.3,3.8C0.2,3.6,0.1,3.4,0,3.1C0,3,0,2.9,0,2.8c0-0.1,0-0.3,0-0.4c0.1-0.5,0.3-1,0.6-1.5C1,0.6,1.3,0.3,1.8,0.1
	c0.1,0,0.3-0.1,0.5-0.1c0.1,0,0.2,0,0.3,0c0,0,0,0,0,0c0.1,0,0.1,0,0.2,0c0,0,0,0,0,0C2.8,0,2.9,0,3,0c0.2,0,0.3,0.1,0.5,0.1
	c0.6,0.2,1.1,0.6,1.5,1.1c0.2,0.4,0.4,0.8,0.4,1.3c0,0,0,0,0,0C5.3,2.6,5.3,2.7,5.3,2.7z"/>
</svg>
